<?xml version="1.0" encoding="UTF-8" standalone="no"?>
<!-- Created with Inkscape (http://www.inkscape.org/) -->

<svg
   width="210mm"
   height="297mm"
   viewBox="0 0 210 297"
   version="1.1"
   id="svg1"
   inkscape:version="1.3.2 (1:1.3.2+202311252150+091e20ef0f)"
   sodipodi:docname="Neon Files.svg"
   xmlns:inkscape="http://www.inkscape.org/namespaces/inkscape"
   xmlns:sodipodi="http://sodipodi.sourceforge.net/DTD/sodipodi-0.dtd"
   xmlns="http://www.w3.org/2000/svg"
   xmlns:svg="http://www.w3.org/2000/svg">
  <sodipodi:namedview
     id="namedview1"
     pagecolor="#505050"
     bordercolor="#ffffff"
     borderopacity="1"
     inkscape:showpageshadow="0"
     inkscape:pageopacity="0"
     inkscape:pagecheckerboard="1"
     inkscape:deskcolor="#505050"
     inkscape:document-units="mm"
     showborder="false"
     inkscape:zoom="0.22271324"
     inkscape:cx="938.42646"
     inkscape:cy="76.331338"
     inkscape:window-width="1366"
     inkscape:window-height="697"
     inkscape:window-x="0"
     inkscape:window-y="0"
     inkscape:window-maximized="1"
     inkscape:current-layer="layer1" />
  <defs
     id="defs1">
    <filter
       inkscape:collect="always"
       style="color-interpolation-filters:sRGB"
       id="filter9"
       x="-0.034369612"
       y="-0.053717403"
       width="1.068739"
       height="1.1074348">
      <feGaussianBlur
         inkscape:collect="always"
         stdDeviation="1.8852184"
         id="feGaussianBlur9" />
    </filter>
    <filter
       inkscape:collect="always"
       style="color-interpolation-filters:sRGB"
       id="filter11"
       x="-0.10078243"
       y="-0.1575162"
       width="1.2015646"
       height="1.3150324">
      <feGaussianBlur
         inkscape:collect="always"
         stdDeviation="7.5408738"
         id="feGaussianBlur11" />
    </filter>
    <filter
       inkscape:collect="always"
       style="color-interpolation-filters:sRGB"
       id="filter13"
       x="-0.30985982"
       y="-0.48429015"
       width="1.6197194"
       height="1.9685803">
      <feGaussianBlur
         inkscape:collect="always"
         stdDeviation="25.345715"
         id="feGaussianBlur13" />
    </filter>
    <filter
       inkscape:collect="always"
       style="color-interpolation-filters:sRGB"
       id="filter14"
       x="-0.036403059"
       y="-0.051844049"
       width="1.0728061"
       height="1.1036881">
      <feGaussianBlur
         inkscape:collect="always"
         stdDeviation="1.7831481"
         id="feGaussianBlur14" />
    </filter>
    <filter
       inkscape:collect="always"
       style="color-interpolation-filters:sRGB"
       id="filter15"
       x="-0.10534073"
       y="-0.15002282"
       width="1.2106815"
       height="1.3000456">
      <feGaussianBlur
         inkscape:collect="always"
         stdDeviation="7.1325924"
         id="feGaussianBlur15" />
    </filter>
    <filter
       inkscape:collect="always"
       style="color-interpolation-filters:sRGB"
       id="filter17"
       x="-0.32236674"
       y="-0.45910418"
       width="1.6447335"
       height="1.9182084">
      <feGaussianBlur
         inkscape:collect="always"
         stdDeviation="23.973436"
         id="feGaussianBlur17" />
    </filter>
  </defs>
  <g
     inkscape:label="Layer 1"
     inkscape:groupmode="layer"
     id="layer1">
    <g
       id="g13"
       style="filter:url(#filter13)">
      <path
         id="path12"
         style="fill:none;stroke:#ffffff;stroke-width:5;stroke-linecap:round;stroke-linejoin:round;stroke-dasharray:none"
         d="m 332.40948,131.56421 c -3.0978,0 -6.00756,2.06006 -6.52456,4.61931 l -16.27941,80.58722 c -0.517,2.55925 1.56035,4.61976 4.65815,4.61976 H 494.8461 l 18.14582,-89.82629 z" />
      <path
         id="path13"
         style="fill:none;stroke:#ffffff;stroke-width:5;stroke-linecap:round;stroke-linejoin:round;stroke-dasharray:none"
         d="M 314.22423 90.622375 C 310.49852 90.622375 308.60815 92.432258 308.6101 96.157955 L 308.67212 214.66545 C 308.67277 215.88211 309.01847 217.00513 309.57904 217.98773 C 309.52924 217.59784 309.51965 217.1952 309.60539 216.77075 L 325.88502 136.18342 C 326.40202 133.62417 329.31189 131.56406 332.40968 131.56406 L 494.84628 131.56406 L 494.84628 112.66134 L 374.4004 112.66134 L 364.97721 90.622375 L 314.22423 90.622375 z " />
    </g>
    <g
       id="g19"
       style="fill:none;stroke:#ffffff">
      <g
         id="g18"
         style="fill:none;stroke:#ffffff">
        <g
           id="g7"
           style="fill:none;stroke:#ffffff">
          <path
             id="path5"
             style="fill:none;stroke:#ffffff;stroke-width:5;stroke-linecap:round;stroke-linejoin:round;stroke-dasharray:none"
             d="m 332.40948,131.56421 c -3.0978,0 -6.00756,2.06006 -6.52456,4.61931 l -16.27941,80.58722 c -0.517,2.55925 1.56035,4.61976 4.65815,4.61976 H 494.8461 l 18.14582,-89.82629 z" />
          <path
             id="path6"
             style="fill:none;stroke:#ffffff;stroke-width:5;stroke-linecap:round;stroke-linejoin:round;stroke-dasharray:none"
             d="M 314.22423 90.622375 C 310.49852 90.622375 308.60815 92.432258 308.6101 96.157955 L 308.67212 214.66545 C 308.67277 215.88211 309.01847 217.00513 309.57904 217.98773 C 309.52924 217.59784 309.51965 217.1952 309.60539 216.77075 L 325.88502 136.18342 C 326.40202 133.62417 329.31189 131.56406 332.40968 131.56406 L 494.84628 131.56406 L 494.84628 112.66134 L 374.4004 112.66134 L 364.97721 90.622375 L 314.22423 90.622375 z " />
        </g>
        <g
           id="g9"
           style="filter:url(#filter9);fill:none;stroke:#ffffff">
          <path
             id="path8"
             style="fill:none;stroke:#ffffff;stroke-width:5;stroke-linecap:round;stroke-linejoin:round;stroke-dasharray:none"
             d="m 332.40948,131.56421 c -3.0978,0 -6.00756,2.06006 -6.52456,4.61931 l -16.27941,80.58722 c -0.517,2.55925 1.56035,4.61976 4.65815,4.61976 H 494.8461 l 18.14582,-89.82629 z" />
          <path
             id="path9"
             style="fill:none;stroke:#ffffff;stroke-width:5;stroke-linecap:round;stroke-linejoin:round;stroke-dasharray:none"
             d="M 314.22423 90.622375 C 310.49852 90.622375 308.60815 92.432258 308.6101 96.157955 L 308.67212 214.66545 C 308.67277 215.88211 309.01847 217.00513 309.57904 217.98773 C 309.52924 217.59784 309.51965 217.1952 309.60539 216.77075 L 325.88502 136.18342 C 326.40202 133.62417 329.31189 131.56406 332.40968 131.56406 L 494.84628 131.56406 L 494.84628 112.66134 L 374.4004 112.66134 L 364.97721 90.622375 L 314.22423 90.622375 z " />
        </g>
        <g
           id="g11"
           style="filter:url(#filter11);fill:none;stroke:#ffffff">
          <path
             id="path10"
             style="fill:none;stroke:#ffffff;stroke-width:5;stroke-linecap:round;stroke-linejoin:round;stroke-dasharray:none"
             d="m 332.40948,131.56421 c -3.0978,0 -6.00756,2.06006 -6.52456,4.61931 l -16.27941,80.58722 c -0.517,2.55925 1.56035,4.61976 4.65815,4.61976 H 494.8461 l 18.14582,-89.82629 z" />
          <path
             id="path11"
             style="fill:none;stroke:#ffffff;stroke-width:5;stroke-linecap:round;stroke-linejoin:round;stroke-dasharray:none"
             d="M 314.22423 90.622375 C 310.49852 90.622375 308.60815 92.432258 308.6101 96.157955 L 308.67212 214.66545 C 308.67277 215.88211 309.01847 217.00513 309.57904 217.98773 C 309.52924 217.59784 309.51965 217.1952 309.60539 216.77075 L 325.88502 136.18342 C 326.40202 133.62417 329.31189 131.56406 332.40968 131.56406 L 494.84628 131.56406 L 494.84628 112.66134 L 374.4004 112.66134 L 364.97721 90.622375 L 314.22423 90.622375 z " />
        </g>
      </g>
      <g
         id="g17"
         style="fill:none;stroke:#ffffff">
        <path
           id="rect1"
           style="fill:none;stroke:#ffffff;stroke-width:5;stroke-linecap:round;stroke-linejoin:round;stroke-dasharray:none"
           d="m 22.653415,90.622375 c -3.725707,0 -5.616302,1.809768 -5.614346,5.535469 l 0.06221,118.507606 c 0.002,3.72571 2.999464,6.72517 6.725171,6.72517 H 203.27493 V 112.66134 H 82.829569 L 73.406372,90.622375 Z"
           sodipodi:nodetypes="ssssccccs" />
        <path
           id="path14"
           style="fill:none;stroke:#ffffff;stroke-width:5;stroke-linecap:round;stroke-linejoin:round;stroke-dasharray:none;filter:url(#filter14)"
           d="m 22.653415,90.622375 c -3.725707,0 -5.616302,1.809768 -5.614346,5.535469 l 0.06221,118.507606 c 0.002,3.72571 2.999464,6.72517 6.725171,6.72517 H 203.27493 V 112.66134 H 82.829569 L 73.406372,90.622375 Z"
           sodipodi:nodetypes="ssssccccs" />
        <path
           id="path15"
           style="fill:none;stroke:#ffffff;stroke-width:5;stroke-linecap:round;stroke-linejoin:round;stroke-dasharray:none;filter:url(#filter15)"
           d="m 22.653415,90.622375 c -3.725707,0 -5.616302,1.809768 -5.614346,5.535469 l 0.06221,118.507606 c 0.002,3.72571 2.999464,6.72517 6.725171,6.72517 H 203.27493 V 112.66134 H 82.829569 L 73.406372,90.622375 Z"
           sodipodi:nodetypes="ssssccccs" />
      </g>
    </g>
    <path
       id="path17"
       style="fill:none;stroke:#ffffff;stroke-width:5;stroke-linecap:round;stroke-linejoin:round;stroke-dasharray:none;filter:url(#filter17)"
       d="m 22.653415,90.622375 c -3.725707,0 -5.616302,1.809768 -5.614346,5.535469 l 0.06221,118.507606 c 0.002,3.72571 2.999464,6.72517 6.725171,6.72517 H 203.27493 V 112.66134 H 82.829569 L 73.406372,90.622375 Z"
       sodipodi:nodetypes="ssssccccs" />
  </g>
</svg>
