<?xml version="1.0" encoding="UTF-8" standalone="no"?>
<!-- Created with Inkscape (http://www.inkscape.org/) -->

<svg
   width="331.0412mm"
   height="257.42758mm"
   viewBox="0 0 331.0412 257.42758"
   version="1.1"
   id="svg1"
   inkscape:version="1.3.2 (1:1.3.2+202311252150+091e20ef0f)"
   sodipodi:docname="open-file-white.svg"
   inkscape:export-filename="open-file-white.svg"
   inkscape:export-xdpi="96"
   inkscape:export-ydpi="96"
   xmlns:inkscape="http://www.inkscape.org/namespaces/inkscape"
   xmlns:sodipodi="http://sodipodi.sourceforge.net/DTD/sodipodi-0.dtd"
   xmlns="http://www.w3.org/2000/svg"
   xmlns:svg="http://www.w3.org/2000/svg">
  <sodipodi:namedview
     id="namedview1"
     pagecolor="#505050"
     bordercolor="#ffffff"
     borderopacity="1"
     inkscape:showpageshadow="0"
     inkscape:pageopacity="0"
     inkscape:pagecheckerboard="1"
     inkscape:deskcolor="#505050"
     inkscape:document-units="mm"
     showborder="false"
     inkscape:zoom="0.22271324"
     inkscape:cx="938.42647"
     inkscape:cy="228.99402"
     inkscape:window-width="1366"
     inkscape:window-height="697"
     inkscape:window-x="0"
     inkscape:window-y="0"
     inkscape:window-maximized="1"
     inkscape:current-layer="layer1" />
  <defs
     id="defs1">
    <filter
       inkscape:collect="always"
       style="color-interpolation-filters:sRGB"
       id="filter9"
       x="-0.034369612"
       y="-0.053717403"
       width="1.068739"
       height="1.1074348">
      <feGaussianBlur
         inkscape:collect="always"
         stdDeviation="1.8852184"
         id="feGaussianBlur9" />
    </filter>
    <filter
       inkscape:collect="always"
       style="color-interpolation-filters:sRGB"
       id="filter11"
       x="-0.10078243"
       y="-0.1575162"
       width="1.2015646"
       height="1.3150324">
      <feGaussianBlur
         inkscape:collect="always"
         stdDeviation="7.5408738"
         id="feGaussianBlur11" />
    </filter>
    <filter
       inkscape:collect="always"
       style="color-interpolation-filters:sRGB"
       id="filter13"
       x="-0.30985982"
       y="-0.48429015"
       width="1.6197194"
       height="1.9685803">
      <feGaussianBlur
         inkscape:collect="always"
         stdDeviation="25.345715"
         id="feGaussianBlur13" />
    </filter>
  </defs>
  <g
     inkscape:label="Layer 1"
     inkscape:groupmode="layer"
     id="layer1"
     transform="translate(-245.2804,-27.292659)">
    <g
       id="g2"
       inkscape:export-filename="open-file-white.svg"
       inkscape:export-xdpi="96"
       inkscape:export-ydpi="96"
       style="stroke:#00ffff">
      <g
         id="g13"
         style="stroke:#00ffff;filter:url(#filter13)">
        <path
           id="path12"
           style="fill:none;stroke:#00ffff;stroke-width:5;stroke-linecap:round;stroke-linejoin:round;stroke-dasharray:none"
           d="m 332.40948,131.56421 c -3.0978,0 -6.00756,2.06006 -6.52456,4.61931 l -16.27941,80.58722 c -0.517,2.55925 1.56035,4.61976 4.65815,4.61976 H 494.8461 l 18.14582,-89.82629 z" />
        <path
           id="path13"
           style="fill:none;stroke:#00ffff;stroke-width:5;stroke-linecap:round;stroke-linejoin:round;stroke-dasharray:none"
           d="m 314.22423,90.622375 c -3.72571,0 -5.61608,1.809883 -5.61413,5.53558 l 0.062,118.507495 c 6.5e-4,1.21666 0.34635,2.33968 0.90692,3.32228 -0.0498,-0.38989 -0.0594,-0.79253 0.0263,-1.21698 l 16.27963,-80.58733 c 0.517,-2.55925 3.42687,-4.61936 6.52466,-4.61936 h 162.4366 V 112.66134 H 374.4004 l -9.42319,-22.038965 z" />
      </g>
      <g
         id="g7"
         style="fill:none;stroke:#00ffff">
        <path
           id="path5"
           style="fill:none;stroke:#00ffff;stroke-width:5;stroke-linecap:round;stroke-linejoin:round;stroke-dasharray:none"
           d="m 332.40948,131.56421 c -3.0978,0 -6.00756,2.06006 -6.52456,4.61931 l -16.27941,80.58722 c -0.517,2.55925 1.56035,4.61976 4.65815,4.61976 H 494.8461 l 18.14582,-89.82629 z" />
        <path
           id="path6"
           style="fill:none;stroke:#00ffff;stroke-width:5;stroke-linecap:round;stroke-linejoin:round;stroke-dasharray:none"
           d="m 314.22423,90.622375 c -3.72571,0 -5.61608,1.809883 -5.61413,5.53558 l 0.062,118.507495 c 6.5e-4,1.21666 0.34635,2.33968 0.90692,3.32228 -0.0498,-0.38989 -0.0594,-0.79253 0.0263,-1.21698 l 16.27963,-80.58733 c 0.517,-2.55925 3.42687,-4.61936 6.52466,-4.61936 h 162.4366 V 112.66134 H 374.4004 l -9.42319,-22.038965 z" />
      </g>
      <g
         id="g9"
         style="fill:none;stroke:#00ffff;filter:url(#filter9)">
        <path
           id="path8"
           style="fill:none;stroke:#00ffff;stroke-width:5;stroke-linecap:round;stroke-linejoin:round;stroke-dasharray:none"
           d="m 332.40948,131.56421 c -3.0978,0 -6.00756,2.06006 -6.52456,4.61931 l -16.27941,80.58722 c -0.517,2.55925 1.56035,4.61976 4.65815,4.61976 H 494.8461 l 18.14582,-89.82629 z" />
        <path
           id="path9"
           style="fill:none;stroke:#00ffff;stroke-width:5;stroke-linecap:round;stroke-linejoin:round;stroke-dasharray:none"
           d="m 314.22423,90.622375 c -3.72571,0 -5.61608,1.809883 -5.61413,5.53558 l 0.062,118.507495 c 6.5e-4,1.21666 0.34635,2.33968 0.90692,3.32228 -0.0498,-0.38989 -0.0594,-0.79253 0.0263,-1.21698 l 16.27963,-80.58733 c 0.517,-2.55925 3.42687,-4.61936 6.52466,-4.61936 h 162.4366 V 112.66134 H 374.4004 l -9.42319,-22.038965 z" />
      </g>
      <g
         id="g11"
         style="fill:none;stroke:#00ffff;filter:url(#filter11)">
        <path
           id="path10"
           style="fill:none;stroke:#00ffff;stroke-width:5;stroke-linecap:round;stroke-linejoin:round;stroke-dasharray:none"
           d="m 332.40948,131.56421 c -3.0978,0 -6.00756,2.06006 -6.52456,4.61931 l -16.27941,80.58722 c -0.517,2.55925 1.56035,4.61976 4.65815,4.61976 H 494.8461 l 18.14582,-89.82629 z" />
        <path
           id="path11"
           style="fill:none;stroke:#00ffff;stroke-width:5;stroke-linecap:round;stroke-linejoin:round;stroke-dasharray:none"
           d="m 314.22423,90.622375 c -3.72571,0 -5.61608,1.809883 -5.61413,5.53558 l 0.062,118.507495 c 6.5e-4,1.21666 0.34635,2.33968 0.90692,3.32228 -0.0498,-0.38989 -0.0594,-0.79253 0.0263,-1.21698 l 16.27963,-80.58733 c 0.517,-2.55925 3.42687,-4.61936 6.52466,-4.61936 h 162.4366 V 112.66134 H 374.4004 l -9.42319,-22.038965 z" />
      </g>
    </g>
  </g>
</svg>
